<svg xmlns="http://www.w3.org/2000/svg"  viewBox="0 0 30 30" width="30px" height="30px"><path d="M 15.337891 2 C 12.111949 2 10.014579 3.6368889 8.8671875 5.2265625 C 7.8987372 6.5683194 7.5861182 7.7216929 7.4902344 8.1113281 C 7.2576123 8.3316462 6.8967743 8.7693159 6.8359375 9.546875 C 5.743571 10.204908 5 11.391239 5 12.75 C 5 13.523905 5.2389635 14.246884 5.6445312 14.847656 C 5.2489804 15.290659 5 15.866764 5 16.5 C 5 16.982438 5.1449163 17.432174 5.3867188 17.816406 C 5.244673 18.00225 5.0743247 18.230867 4.8945312 18.5 C 4.4967553 19.095432 4 19.700774 4 20.691406 A 1.0001 1.0001 0 0 0 4.0585938 21.027344 C 4.0585938 21.027344 4.5832048 22.278855 5.8535156 23.158203 C 5.9778018 24.058821 6.5415456 24.72453 7.0449219 25.060547 C 7.451612 25.332024 7.6597784 25.353964 7.859375 25.40625 C 8.015836 25.596355 8.1402641 25.804026 8.6542969 26.126953 C 9.3749622 26.579691 10.484609 27 12 27 C 14.233517 27 15.682779 25.987029 16.345703 24.824219 C 17.008627 23.661409 17 22.461119 17 22 C 17 20.809207 16.530467 19.411836 15.236328 18.464844 C 15.001561 18.293051 14.735821 18.141064 14.455078 17.998047 C 14.470333 17.998179 14.484692 18 14.5 18 C 15.916666 18 17.106441 17.432744 17.873047 16.570312 C 18.639653 15.707881 19 14.597222 19 13.5 C 19 12.402778 18.639653 11.292119 17.873047 10.429688 C 17.106441 9.5672551 15.916666 9 14.5 9 C 13.254817 9 12.202735 9.4528081 11.441406 10.144531 C 10.874658 9.5601468 10.121887 9.1630406 9.28125 9.0429688 A 1.0001 1.0001 0 0 0 9.3535156 8.8261719 C 9.3535156 8.8261719 9.6056725 7.6212639 10.488281 6.3984375 C 11.37089 5.1756111 12.757832 4 15.337891 4 C 16.32685 4 18.402849 4.2668539 20.070312 5.1503906 C 21.737776 6.0339274 23.01312 7.3525806 23 9.90625 C 22.998 10.293279 22.854354 11.224145 22.701172 11.980469 C 22.696795 12.002078 22.69578 11.998158 22.691406 12.019531 A 1.0001 1.0001 0 0 0 22.470703 12 A 1.0001 1.0001 0 0 0 21.681641 12.425781 L 20.181641 14.570312 A 1.0001 1.0001 0 0 0 21.578125 15.962891 A 1.0001 1.0001 0 0 0 23.074219 16.390625 A 1.0001 1.0001 0 0 0 25 16 L 25 13.429688 A 1.0001 1.0001 0 0 0 24.603516 12.632812 C 24.631021 12.503828 24.631652 12.517692 24.660156 12.376953 C 24.822474 11.575527 24.996046 10.663987 25 9.9160156 C 25.01688 6.6306851 23.104895 4.4950258 21.005859 3.3828125 C 18.906823 2.2705992 16.638931 2 15.337891 2 z M 8.75 11 C 9.4182692 11 9.9701504 11.377592 10.265625 11.916016 C 10.088785 12.427292 10 12.964742 10 13.5 C 10 13.666783 10.024202 13.833515 10.041016 14 L 7.5390625 14 C 7.2112605 13.683148 7 13.248424 7 12.75 C 7 11.771268 7.7712677 11 8.75 11 z M 14.5 11 C 15.416666 11 15.976893 11.307744 16.376953 11.757812 C 16.777013 12.207882 17 12.847222 17 13.5 C 17 14.152778 16.777013 14.792119 16.376953 15.242188 C 15.976893 15.692255 15.416666 16 14.5 16 C 13.583334 16 13.023107 15.692256 12.623047 15.242188 C 12.222987 14.792118 12 14.152778 12 13.5 C 12 12.847222 12.222987 12.207881 12.623047 11.757812 C 13.023107 11.307745 13.583334 11 14.5 11 z M 8.75 12 A 0.75 0.75 0 0 0 8.75 13.5 A 0.75 0.75 0 0 0 8.75 12 z M 14.75 13 A 0.75 0.75 0 0 0 14.75 14.5 A 0.75 0.75 0 0 0 14.75 13 z M 7.5 16 L 10.712891 16 C 10.837117 16.19735 10.968358 16.391894 11.126953 16.570312 C 11.336976 16.806588 11.584006 17.014801 11.853516 17.201172 C 11.023868 17.069184 10.081359 17 9 17 L 7.5 17 C 7.2130628 17 7 16.786937 7 16.5 C 7 16.213063 7.2130628 16 7.5 16 z M 21.683594 17 C 21.367213 17 21.114793 17.035984 20.921875 17.083984 C 20.728957 17.131994 20.521484 17.234375 20.521484 17.234375 A 1.0001 1.0001 0 0 0 21.404297 19.025391 C 21.430379 19.018904 21.517974 19 21.683594 19 C 21.884464 19 22 19.036966 22 19.5 C 22 19.631517 21.9802 19.674912 21.835938 19.78125 C 21.691676 19.887588 21.39826 20 21 20 A 1.0001 1.0001 0 0 0 20 21 C 20 22.385771 20.221508 24.496269 20.943359 26.361328 A 1.0001 1.0001 0 1 0 22.806641 25.638672 C 22.309539 24.354303 22.173228 22.832254 22.115234 21.664062 C 22.417235 21.564843 22.768058 21.578872 23.023438 21.390625 C 23.592425 20.971213 24 20.265483 24 19.5 C 24 18.183034 22.974723 17 21.683594 17 z M 7.046875 18.953125 C 7.1945811 18.980863 7.3448815 19 7.5 19 L 9 19 C 11.74227 19 13.28178 19.511117 14.056641 20.078125 C 14.831501 20.645133 15 21.246793 15 22 C 15 22.413881 14.96 23.213591 14.607422 23.832031 C 14.254846 24.450471 13.704483 25 12 25 C 10.843391 25 10.140632 24.699856 9.7167969 24.433594 C 9.2929622 24.167331 9.2089844 24.009766 9.2089844 24.009766 A 1.0001 1.0001 0 0 0 9.1835938 23.974609 C 10.492874 23.916044 11.52358 23.691622 12.242188 23.445312 C 13.07138 23.161099 13.578125 22.816406 13.578125 22.816406 A 1.0003736 1.0003736 0 1 0 12.421875 21.183594 C 12.421875 21.183594 12.223308 21.3389 11.59375 21.554688 C 10.964192 21.770474 9.9709667 22 8.5761719 22 C 6.6570196 22 6.181535 20.881302 6.0664062 20.564453 C 6.1124825 20.507139 6.2686011 20.045419 6.5585938 19.611328 C 6.8013484 19.247948 6.9351761 19.091664 7.046875 18.953125 z"/></svg>